<svg xmlns="http://www.w3.org/2000/svg" viewBox="0 0 512 512" width="512" height="512">
  <!-- YoSoro! お宝ガチャ：紙色の地に、群青の舵輪と赤の王様スポーク。版ズレの赤い影つき -->
  <defs>
    <g id="w">
      <path fill-rule="evenodd" d="M-206 0a206 206 0 1 0 412 0a206 206 0 1 0 -412 0ZM-170 0a170 170 0 1 1 340 0a170 170 0 1 1 -340 0Z"/>
      <g id="s"><rect x="-11" y="-240" width="22" height="240"/><rect x="-19" y="-292" width="38" height="132" rx="19"/></g>
      <use href="#s" transform="rotate(45)"/><use href="#s" transform="rotate(90)"/><use href="#s" transform="rotate(135)"/>
      <use href="#s" transform="rotate(180)"/><use href="#s" transform="rotate(225)"/><use href="#s" transform="rotate(270)"/><use href="#s" transform="rotate(315)"/>
      <path fill-rule="evenodd" d="M-76 0a76 76 0 1 0 152 0a76 76 0 1 0 -152 0ZM-42 0a42 42 0 1 1 84 0a42 42 0 1 1 -84 0Z"/>
      <circle r="16"/>
    </g>
  </defs>
  <rect width="512" height="512" fill="#EEEADB"/>
  <g transform="translate(254 260) scale(.74)">
    <use href="#w" fill="#F23B20" transform="translate(16 14)"/>
    <use href="#w" fill="#1A33E0"/>
    <g fill="#0A0E33"><rect x="-19" y="-292" width="38" height="132" rx="19"/><rect x="-11" y="-240" width="22" height="80"/></g>
  </g>
</svg>
